<?xml version="1.0" encoding="utf-8"?>
<!-- Generator: Adobe Illustrator 21.0.0, SVG Export Plug-In . SVG Version: 6.00 Build 0)  -->
<svg version="1.1" id="Capa_1" xmlns="http://www.w3.org/2000/svg" xmlns:xlink="http://www.w3.org/1999/xlink" x="0px" y="0px"
	 viewBox="0 0 512 512" style="enable-background:new 0 0 512 512;" xml:space="preserve">
<style type="text/css">
	.st0{fill:#232222;}
</style>
<g>
	<path class="st0" d="M231.5,254.3L4.9,480.9c-6.3,6.3-6.3,16.5,0,22.8c3.1,3.2,7.3,4.7,11.4,4.7c4.1,0,8.2-1.6,11.4-4.7L256,275.4
		l228.3,228.3c3.2,3.2,7.3,4.7,11.4,4.7s8.2-1.6,11.4-4.7c6.3-6.3,6.3-16.5,0-22.8L280.5,254.3L507.3,27.5c6.3-6.3,6.3-16.5,0-22.8
		c-6.3-6.3-16.5-6.3-22.8,0L256,233.2L27.5,4.7C21.2-1.6,11-1.6,4.7,4.7c-6.3,6.3-6.3,16.5,0,22.8L231.5,254.3z"/>
</g>
</svg>
