<?xml version="1.0" encoding="utf-8"?>
<!-- Generator: Adobe Illustrator 21.0.0, SVG Export Plug-In . SVG Version: 6.00 Build 0)  -->
<svg version="1.1" id="Capa_1" xmlns="http://www.w3.org/2000/svg" xmlns:xlink="http://www.w3.org/1999/xlink" x="0px" y="0px"
	 viewBox="0 0 512 384" style="enable-background:new 0 0 512 384;" xml:space="preserve">
<style type="text/css">
	.st0{fill:#FFFFFF;}
</style>
<g>
	<g>
		<g>
			<path class="st0" d="M10.7,31.2C81,90.7,204.3,195.4,240.5,228c4.9,4.4,10.1,6.6,15.5,6.6c5.4,0,10.6-2.2,15.5-6.6
				C307.7,195.4,431,90.7,501.3,31.2c4.4-3.7,5-10.2,1.5-14.7C494.6,6,482.4,0,469.3,0H42.7C29.6,0,17.4,6,9.2,16.4
				C5.6,21,6.3,27.5,10.7,31.2z"/>
			<path class="st0" d="M505.8,63.4c-3.8-1.8-8.2-1.1-11.4,1.5C416.5,131,317.1,215.7,285.8,243.9c-17.6,15.9-41.9,15.9-59.5,0
				c-33.4-30.1-145-125-208.7-178.9c-3.2-2.7-7.6-3.3-11.4-1.5C2.4,65.2,0,68.9,0,73.1v268.3C0,364.9,19.1,384,42.7,384h426.7
				c23.5,0,42.7-19.1,42.7-42.7V73.1C512,68.9,509.6,65.1,505.8,63.4z"/>
		</g>
	</g>
</g>
</svg>
