<?xml version="1.0" encoding="utf-8"?>
<!-- Generator: Adobe Illustrator 21.0.0, SVG Export Plug-In . SVG Version: 6.00 Build 0)  -->
<svg version="1.1" id="Bold" xmlns="http://www.w3.org/2000/svg" xmlns:xlink="http://www.w3.org/1999/xlink" x="0px" y="0px"
	 viewBox="0 0 512 512" style="enable-background:new 0 0 512 512;" xml:space="preserve">
<style type="text/css">
	.st0{fill:#FFFFFF;}
	.st1{opacity:0.8;}
	.st2{fill:#FEFEFD;}
	.st3{opacity:0.8;fill:none;stroke:#FFFFFF;stroke-width:0.2;stroke-linecap:round;stroke-linejoin:round;stroke-miterlimit:10;}
	.st4{fill:none;stroke:#FFFFFF;stroke-width:0.2;stroke-miterlimit:10;}
</style>
<path class="st0" d="M256.1,124.5c-72.6,0-131.4,58.8-131.4,131.4c0,72.6,58.8,131.4,131.4,131.4c72.6,0,131.4-58.8,131.4-131.4
	C387.5,183.3,328.6,124.5,256.1,124.5L256.1,124.5z M256.1,341.2c-47.1,0-85.3-38.2-85.3-85.3s38.2-85.3,85.3-85.3
	s85.3,38.2,85.3,85.3C341.4,303,303.2,341.2,256.1,341.2z"/>
<path class="st0" d="M361.6,1.6c-47.1-2.2-163.8-2.1-210.9,0C109.2,3.6,72.7,13.6,43.2,43C-6,92.3,0.3,158.6,0.3,255.9
	c0,99.6-5.5,164.4,42.9,212.9c49.4,49.4,116.7,42.9,212.9,42.9c98.6,0,132.7,0.1,167.6-13.4c47.4-18.4,83.2-60.8,86.7-136.9
	c2.2-47.1,2.1-163.8,0-210.9C506.2,60.6,457.9,6.1,361.6,1.6L361.6,1.6z M436.1,436.2c-32.3,32.3-77.1,29.4-180.7,29.4
	c-106.7,0-149.4,1.6-180.7-29.7c-35.9-35.8-29.4-93.2-29.4-180.3c0-117.9-12.1-202.8,106.2-208.8c27.2-1,35.2-1.3,103.6-1.3l1,0.6
	c113.7,0,202.9-11.9,208.2,106.4c1.2,27,1.5,35.1,1.5,103.4C465.8,361.3,467.8,404.4,436.1,436.2L436.1,436.2z"/>
<circle class="st0" cx="392.7" cy="119.4" r="30.7"/>
<image style="overflow:visible;" width="1181" height="1181" xlink:href="../../../Downloads/Portavasos_sindescripcion.png"  transform="matrix(0.24 0 0 0.24 -534.0048 19.6667)">
</image>
<image style="overflow:visible;" width="1181" height="1181" xlink:href="../../../Downloads/Portavasos_sindescripcion_negro.png"  transform="matrix(0.24 0 0 0.24 7.4352 43)">
</image>
<path id="SVGID_x5F_1_x5F_" style="fill:none;" d="M-269.2,140.3c12.2,68.5-33,133.7-100.8,145.8s-132.7-33.7-144.9-102.2
	c-12.2-68.5,33-133.7,100.8-145.8S-281.4,71.8-269.2,140.3z"/>
<text><textPath  xlink:href="#SVGID_x5F_1_x5F_" startOffset="82.6823%">
<tspan  class="st0" style="font-family:'MyriadPro-Regular'; font-size:8px;">Jiron San Martín 228 - Centro Histórico  Trujillo - Perú / Telefono.  974 664 947</tspan></textPath>
</text>
<image style="overflow:visible;" width="1366" height="768" xlink:href="14EA9112.jpg"  transform="matrix(0.5389 0 0 0.5389 -1720.307 -91.5859)">
</image>
<image style="overflow:visible;" width="1181" height="1181" xlink:href="../../../Downloads/Portavasos_sindescripcion.png"  transform="matrix(0.24 0 0 0.24 -1280.0049 43)">
</image>
<path id="SVGID_x5F_2_x5F_" style="fill:none;" d="M-1053.3,93.9c51,47.2,54.4,126.5,7.6,177.1c-46.8,50.6-126.1,53.2-177.2,6
	c-51-47.2-54.4-126.5-7.6-177.1S-1104.3,46.7-1053.3,93.9z"/>
<text><textPath  xlink:href="#SVGID_x5F_2_x5F_" startOffset="82.6823%">
<tspan  class="st0" style="font-family:'MyriadPro-Regular'; font-size:8px;">Jiron San Martín 228 - Centro Histórico  Trujillo - Perú / Telef.  974 664 947 - (044) 044 677947 / Correo: hola@casablancatrujillo.com</tspan></textPath>
</text>
<g class="st1">
	<g>
		<path class="st2" d="M-1139.6,242.8h-7.8c-0.9,0-1.6,0.7-1.6,1.6v7.8c0,0.9,0.7,1.6,1.6,1.6h3.2v-3.9h-1.3V248h1.3v-1.3
			c0-1.1,0.9-1.9,1.9-1.9h2v1.9h-2v1.3h2l-0.3,1.9h-1.6v3.9h2.6c0.9,0,1.6-0.7,1.6-1.6v-7.8C-1138,243.5-1138.7,242.8-1139.6,242.8z
			"/>
	</g>
</g>
<g class="st1">
	<g>
		<path class="st2" d="M-1125.3,245.1c-1.7,0-3.2,1.4-3.2,3.2c0,1.7,1.4,3.2,3.2,3.2c1.7,0,3.2-1.4,3.2-3.2
			C-1122.1,246.5-1123.5,245.1-1125.3,245.1L-1125.3,245.1z M-1125.3,250.3c-1.1,0-2.1-0.9-2.1-2.1c0-1.1,0.9-2.1,2.1-2.1
			s2.1,0.9,2.1,2.1C-1123.2,249.4-1124.1,250.3-1125.3,250.3z"/>
		<path class="st2" d="M-1122.7,242.2c-1.1-0.1-3.9-0.1-5.1,0c-1,0-1.9,0.3-2.6,1c-1.2,1.2-1,2.8-1,5.1c0,2.4-0.1,4,1,5.1
			c1.2,1.2,2.8,1,5.1,1c2.4,0,3.2,0,4-0.3c1.1-0.4,2-1.5,2.1-3.3c0.1-1.1,0.1-3.9,0-5.1C-1119.2,243.6-1120.4,242.3-1122.7,242.2
			L-1122.7,242.2z M-1120.9,252.6c-0.8,0.8-1.9,0.7-4.3,0.7c-2.6,0-3.6,0-4.3-0.7c-0.9-0.9-0.7-2.2-0.7-4.3c0-2.8-0.3-4.9,2.6-5
			c0.7,0,0.8,0,2.5,0l0,0c2.7,0,4.9-0.3,5,2.6c0,0.6,0,0.8,0,2.5C-1120.2,250.8-1120.2,251.9-1120.9,252.6L-1120.9,252.6z"/>
		<circle class="st2" cx="-1122" cy="245" r="0.7"/>
	</g>
</g>
<text transform="matrix(0.9909 0 0 1 -1164.3335 265.0983)" style="opacity:0.8;fill:#FFFFFF; font-family:'Barlow-Regular'; font-size:4.8269px;">Síguenos en redes sociales</text>
<line class="st3" x1="-1169.3" y1="269.7" x2="-1104.7" y2="269.7"/>
<g class="st1">
	
		<text transform="matrix(0.9909 0 0 1 -1156.3334 277.0729)" class="st0" style="font-family:'Barlow-Regular'; font-size:4.8269px;">casablancatrujillo.com</text>
</g>
<g class="st1">
	<g>
		<path class="st0" d="M-1161.6,273.7c-1.1,0-2,0.9-2,2c0,1.1,0.9,2,2,2c1.1,0,2-0.9,2-2C-1159.5,274.6-1160.4,273.7-1161.6,273.7z
			 M-1159.8,276.5l-0.6,0.1c0.1-0.2,0.1-0.5,0.1-0.8h0.6C-1159.7,276.1-1159.7,276.3-1159.8,276.5z M-1163.5,275.8h0.6
			c0,0.3,0,0.5,0.1,0.8l-0.6-0.1C-1163.4,276.3-1163.5,276.1-1163.5,275.8z M-1163.3,275.1l0.6-0.1c-0.1,0.2-0.1,0.5-0.1,0.8h-0.6
			C-1163.5,275.5-1163.4,275.3-1163.3,275.1z M-1161.5,274.8c0.2,0,0.5,0,0.7,0.1l0.2,0c0.1,0.3,0.1,0.5,0.1,0.8h-1.1V274.8z
			 M-1160.7,274.8c-0.2,0-0.5-0.1-0.8-0.1v-0.8c0.4,0,0.7,0.4,0.9,0.9L-1160.7,274.8z M-1161.6,274.7c-0.3,0-0.5,0-0.8,0.1l-0.2,0
			c0.2-0.5,0.5-0.9,0.9-0.9V274.7z M-1162.4,274.9c0.2,0,0.5-0.1,0.7-0.1v0.9h-1.1c0-0.3,0-0.5,0.1-0.8L-1162.4,274.9z
			 M-1162.7,275.8h1.1v0.9c-0.2,0-0.5,0-0.7-0.1l-0.2,0C-1162.7,276.4-1162.7,276.1-1162.7,275.8z M-1162.4,276.8
			c0.2,0,0.5,0.1,0.8,0.1v0.8c-0.4,0-0.7-0.4-0.9-0.9L-1162.4,276.8z M-1161.5,276.9c0.3,0,0.5,0,0.8-0.1l0.2,0
			c-0.2,0.5-0.5,0.9-0.9,0.9V276.9z M-1160.8,276.7c-0.2,0-0.5,0.1-0.7,0.1v-0.9h1.1c0,0.3,0,0.5-0.1,0.8L-1160.8,276.7z
			 M-1160.3,275.7c0-0.3,0-0.5-0.1-0.8l0.6,0.1c0.1,0.2,0.1,0.4,0.1,0.6H-1160.3z M-1159.9,274.9l-0.6-0.1c-0.1-0.3-0.3-0.6-0.5-0.9
			C-1160.5,274.1-1160.1,274.5-1159.9,274.9z M-1162.2,274c-0.3,0.2-0.4,0.5-0.5,0.9l-0.6,0.1C-1163,274.5-1162.6,274.1-1162.2,274z
			 M-1163.3,276.6l0.6,0.1c0.1,0.3,0.3,0.6,0.5,0.9C-1162.6,277.4-1163,277.1-1163.3,276.6z M-1161,277.6c0.3-0.2,0.4-0.5,0.5-0.9
			l0.6-0.1C-1160.1,277.1-1160.5,277.4-1161,277.6z"/>
	</g>
	<circle class="st4" cx="-1161.6" cy="275.8" r="2.9"/>
</g>
</svg>
