<svg width="172" height="61" viewBox="0 0 172 61" fill="none" xmlns="http://www.w3.org/2000/svg">
						<path d="M119.32 23.3046C118.153 23.3046 116.986 23.6527 115.935 24.117C115.585 23.6527 115.002 23.3046 114.301 23.3046C113.368 23.3046 112.551 24.0009 112.551 24.9294V38.9722C112.551 39.9007 113.368 40.597 114.301 40.597C115.352 40.597 116.169 39.7846 116.169 38.9722V35.3744C117.102 35.8387 118.153 36.0708 119.32 36.0708C123.054 36.0708 126.205 33.1694 126.205 29.6877C126.089 26.206 123.054 23.3046 119.32 23.3046ZM122.471 29.8037C122.471 30.6161 122.121 31.4285 121.537 32.0088C120.954 32.5891 120.137 32.9373 119.32 32.9373C118.386 32.9373 117.686 32.5891 117.102 32.0088C116.519 31.5446 116.169 30.7322 116.169 29.8037C116.169 28.8753 116.519 28.1789 117.102 27.5987C117.686 27.0184 118.503 26.6702 119.32 26.6702C120.137 26.6702 120.954 27.0184 121.537 27.5987C122.121 28.1789 122.471 28.9913 122.471 29.8037Z" fill="#8A8C8F"/>
						<path d="M146.279 23.3046C145.579 23.3046 144.995 23.6527 144.762 24.233C143.712 23.5367 142.545 23.3046 141.261 23.3046C139.394 23.3046 137.76 24.0009 136.476 25.2775C135.192 26.4381 134.609 28.0629 134.609 29.8037C134.609 31.5446 135.309 33.0533 136.476 34.3299C137.76 35.4905 139.394 36.1868 141.261 36.1868C142.545 36.1868 143.712 35.8387 144.762 35.2584C144.995 35.8387 145.579 36.1868 146.279 36.1868C147.213 36.1868 147.913 35.4905 147.913 34.6781V24.8133C148.03 24.0009 147.213 23.3046 146.279 23.3046ZM144.645 29.6877C144.645 30.6161 144.295 31.4285 143.712 32.1249C143.128 32.7051 142.311 33.0533 141.378 33.0533C140.444 33.0533 139.627 32.7051 139.043 32.1249C138.46 31.5446 138.11 30.6161 138.11 29.6877C138.11 28.7592 138.46 27.8308 139.043 27.2505C139.627 26.6702 140.444 26.322 141.378 26.322C142.311 26.322 143.128 26.6702 143.712 27.2505C144.295 27.9468 144.645 28.7592 144.645 29.6877Z" fill="#8A8C8F"/>
						<path d="M56.8816 22.144V34.2139C56.8816 35.2584 56.0646 36.0708 55.0143 36.0708C53.9639 36.0708 53.147 35.2584 53.147 34.2139V22.144C53.0303 20.9835 53.9639 20.1711 55.0143 20.1711C56.0646 20.1711 56.8816 20.9835 56.8816 22.144Z" fill="#8A8C8F"/>
						<path d="M78.3555 22.4922C77.3052 22.4922 76.4882 21.6798 76.4882 20.6353C76.4882 19.5908 77.3052 18.6624 78.3555 18.6624C79.4059 18.6624 80.3396 19.4747 80.3396 20.6353C80.2228 21.6798 79.4059 22.4922 78.3555 22.4922Z" fill="#8A8C8F"/>
						<path d="M96.0951 29.3395C96.0951 30.2679 95.8617 31.0803 95.5116 32.0088C95.1615 32.8212 94.6947 33.5175 94.1111 34.0978C93.5276 34.6781 92.8273 35.2584 92.0104 35.4905C91.1934 35.8387 90.2598 36.0708 89.3261 36.0708C88.3925 36.0708 87.5755 35.9547 86.6419 35.6065C85.8249 35.2584 85.1247 34.7942 84.4244 34.2139C83.8409 33.6336 83.2574 32.8212 83.024 32.1249C82.6738 31.3125 82.5571 30.384 82.5571 29.4556C82.5571 28.5271 82.6738 27.7147 83.024 26.7863C83.3741 25.9739 83.8409 25.2775 84.4244 24.5812C85.008 24.0009 85.7082 23.4206 86.5252 23.1885C87.3421 22.8403 88.2758 22.6082 89.2094 22.6082C90.1431 22.6082 90.96 22.7243 91.8937 23.1885C92.7106 23.5367 93.4109 24.0009 94.1111 24.5812C94.6947 25.1615 95.2782 25.9739 95.5116 26.7863C95.8617 27.5986 96.0951 28.5271 96.0951 29.3395ZM92.7106 29.3395C92.7106 27.4826 91.1934 25.9739 89.3261 25.9739C87.4588 25.9739 85.9416 27.4826 85.9416 29.3395C85.9416 31.1964 87.4588 32.7051 89.3261 32.7051C91.1934 32.8212 92.7106 31.1964 92.7106 29.3395Z" fill="#8A8C8F"/>
						<path d="M108.349 23.3046C109.633 23.3046 110.45 24.5812 109.983 25.7418C108.816 28.7592 106.832 33.7497 105.899 35.8387C104.498 39.0883 103.098 40.9452 101.814 41.9897C100.53 43.0342 98.6628 42.1057 98.6628 40.4809C98.6628 39.7846 99.1296 39.0883 99.7132 38.7401C100.764 38.2759 101.58 37.1153 101.58 35.8387L97.6124 25.7418C97.1456 24.5812 97.9626 23.3046 99.2463 23.3046C99.9466 23.3046 100.647 23.7688 100.88 24.3491L103.098 29.4556C103.331 29.9198 104.031 29.9198 104.148 29.4556L106.365 24.3491C106.599 23.6527 107.299 23.3046 107.999 23.3046H108.349Z" fill="#8A8C8F"/>
						<path d="M130.407 18.6624C131.457 18.6624 132.391 19.4747 132.391 20.6353V34.2139C132.391 35.2584 131.574 36.1869 130.407 36.1869C129.357 36.1869 128.423 35.3745 128.423 34.2139V20.5193C128.423 19.4747 129.24 18.6624 130.407 18.6624Z" fill="#8A8C8F"/>
						<path d="M156.899 23.3046C155.849 23.3046 154.682 23.5367 153.632 24.0009C153.282 23.5367 152.698 23.3046 151.998 23.3046C151.298 23.3046 150.714 23.5367 150.481 24.0009C150.247 24.233 150.13 24.5812 150.13 24.8133V28.6432V34.446C150.13 35.2584 150.947 35.9547 151.881 35.9547H151.998C152.114 35.9547 152.114 35.9547 152.231 35.9547C152.231 35.9547 152.231 35.9547 152.348 35.9547C152.465 35.9547 152.465 35.9547 152.581 35.9547H152.698C152.815 35.9547 152.815 35.9547 152.815 35.8387H152.931C153.048 35.8387 153.048 35.7226 153.165 35.7226C153.165 35.7226 153.165 35.7226 153.282 35.7226C153.632 35.4905 153.865 35.1423 153.982 34.7942C153.982 34.6781 153.982 34.6781 153.982 34.6781V34.5621V28.7592C153.982 27.4826 155.266 26.4381 156.899 26.4381C158.533 26.4381 159.934 27.4826 159.934 28.7592V34.5621C159.934 35.3744 160.751 36.1868 161.801 36.1868C162.852 36.1868 163.668 35.4905 163.668 34.5621V28.7592C163.668 25.7418 160.634 23.3046 156.899 23.3046Z" fill="#8A8C8F"/>
						<path d="M66.685 23.3046C65.6347 23.3046 64.4676 23.5367 63.4172 24.0009C63.0671 23.5367 62.4836 23.3046 61.7833 23.3046C61.0831 23.3046 60.4995 23.5367 60.2661 24.0009C60.0327 24.233 59.916 24.5812 59.916 24.8133V28.6432V34.446C59.916 35.2584 60.733 35.9547 61.6666 35.9547H61.7833C61.9 35.9547 61.9 35.9547 62.0167 35.9547C62.0167 35.9547 62.0167 35.9547 62.1334 35.9547C62.2502 35.9547 62.2502 35.9547 62.3669 35.9547H62.4836C62.6003 35.9547 62.6003 35.9547 62.6003 35.8387H62.717C62.8337 35.8387 62.8337 35.7226 62.9504 35.7226C62.9504 35.7226 62.9504 35.7226 63.0671 35.7226C63.4172 35.4905 63.6506 35.1423 63.7673 34.7942C63.7673 34.6781 63.7673 34.6781 63.7673 34.6781V34.5621V28.7592C63.7673 27.4826 65.0511 26.4381 66.685 26.4381C68.3189 26.4381 69.7194 27.4826 69.7194 28.7592V34.5621C69.7194 35.3744 70.5363 36.1868 71.5867 36.1868C72.6371 36.1868 73.454 35.4905 73.454 34.5621V28.7592C73.3373 25.7418 70.3029 23.3046 66.685 23.3046Z" fill="#8A8C8F"/>
						<path d="M78.3557 23.3046C79.4061 23.3046 80.223 24.117 80.223 25.2775V35.4905C80.223 36.535 79.9896 37.8116 79.6395 38.8561C79.0559 40.2488 78.1223 41.4094 76.9552 42.2218C75.6714 43.0342 74.0375 42.1057 74.0375 40.597C74.0375 40.0167 74.3877 39.4364 74.8545 39.0883C75.7881 38.3919 76.4884 37.3474 76.4884 35.6066V25.3936C76.3717 24.117 77.3053 23.3046 78.3557 23.3046Z" fill="#8A8C8F"/>
						<path d="M26.8879 12.0471C16.6177 12.0471 8.33148 20.2871 8.33148 30.5001C8.33148 40.7131 16.6177 48.9531 26.8879 48.9531C37.1581 48.9531 45.4443 40.7131 45.4443 30.5001C45.4443 20.2871 37.1581 12.0471 26.8879 12.0471ZM19.4187 22.7243C20.7024 22.7243 21.8695 23.7688 21.8695 25.0455C21.8695 26.3221 20.8191 27.4826 19.5354 27.4826C18.2516 27.4826 17.0845 26.4381 17.0845 25.1615C16.9678 23.7688 18.1349 22.7243 19.4187 22.7243ZM38.4419 29.4556C38.0918 29.5717 37.7417 29.6877 37.3915 29.6877H34.4739V33.0534C34.4739 37.8117 30.8559 41.9897 26.071 42.2218C20.9358 42.4539 17.3179 38.6241 17.2012 33.0534V31.4286C17.2012 30.1519 18.1349 28.9914 19.5354 28.9914C20.9358 28.9914 21.9862 30.0359 21.9862 31.3125V32.9373C22.1029 35.3745 23.7368 37.4635 25.6041 37.3474C27.5881 37.3474 29.222 35.4905 29.222 32.0088L28.9886 20.4032C28.9886 19.0105 30.039 17.966 31.4395 17.7339C31.5562 17.7339 32.84 17.5018 33.6569 18.3142C34.3572 19.0105 39.1421 25.1615 39.1421 25.1615C39.1421 25.1615 39.8424 25.9739 39.8424 27.1345C39.8424 28.295 39.3756 29.1074 38.4419 29.4556Z" fill="#861F21"/>
					</svg>