<?xml version="1.0" encoding="utf-8"?>
<!-- Generator: Adobe Illustrator 21.0.2, SVG Export Plug-In . SVG Version: 6.00 Build 0)  -->
<svg version="1.1" id="Capa_1" xmlns="http://www.w3.org/2000/svg" xmlns:xlink="http://www.w3.org/1999/xlink" x="0px" y="0px"
	 viewBox="0 0 43.5 43.5" style="enable-background:new 0 0 43.5 43.5;" xml:space="preserve">
<style type="text/css">
	.st0{fill-rule:evenodd;clip-rule:evenodd;fill:#0FC144;}
	.st1{fill-rule:evenodd;clip-rule:evenodd;fill:#FFFFFF;}
</style>
<path class="st0" d="M3,40.6c0-0.6,2.3-8.4,2.3-8.4s-5.4-9.4-2.1-15.9S11,2.1,17.8,1.9s16.5,0,19.8,7.5s6.7,16.5,1.8,21.6
	s-8.5,10.7-16.8,10.1s-12.4-2.6-12.4-2.6L3,40.6z"/>
<path class="st1" d="M22.1,39c-3.6,0-7-1.1-9.9-2.9l-6.9,2.2l2.2-6.6c-2.1-2.9-3.4-6.6-3.4-10.5c0-0.6,0-1.1,0.1-1.7
	c0.9-9,8.6-16.1,17.8-16.1c9.4,0,17.2,7.2,17.9,16.4c0,0.5,0,0.9,0,1.4C40.1,31,32,39,22.1,39L22.1,39z M31.9,25.5
	c-0.5-0.3-3.1-1.5-3.6-1.7c-0.5-0.1-0.8-0.3-1.2,0.3c-0.3,0.5-1.3,1.7-1.6,2c-0.3,0.4-0.6,0.4-1.1,0.1c-0.5-0.3-2.2-0.8-4.2-2.6
	c-1.6-1.4-2.6-3.1-2.9-3.6c-0.3-0.5,0-0.8,0.2-1.1c0.3-0.2,0.5-0.6,0.8-0.9c0.1-0.1,0.1-0.1,0.2-0.2c0.1-0.2,0.2-0.4,0.3-0.6
	c0.2-0.4,0.1-0.7,0-0.9c-0.1-0.3-1.2-2.8-1.6-3.9c-0.4-1.1-0.9-0.9-1.2-0.9c-0.3,0-0.7,0-1,0c-0.4,0-0.9,0.1-1.4,0.7
	c-0.5,0.5-1.9,1.7-1.9,4.3c0,0.6,0.1,1.2,0.3,1.7c0.5,1.9,1.7,3.4,1.9,3.6c0.3,0.4,3.6,5.8,8.9,7.8c5.4,2.1,5.4,1.4,6.3,1.3
	c0.9-0.1,3.1-1.2,3.5-2.5c0.4-1.2,0.4-2.3,0.3-2.5C32.8,25.9,32.4,25.7,31.9,25.5L31.9,25.5z M43.5,20.6C43.2,9.2,33.8,0,22.1,0
	C10.7,0,1.3,9,0.8,20.2c0,0.3,0,0.6,0,0.9c0,4,1.1,7.8,3.1,11L0,43.5l11.8-3.8c3.1,1.7,6.6,2.6,10.3,2.6c11.8,0,21.4-9.5,21.4-21.2
	C43.5,21,43.5,20.8,43.5,20.6L43.5,20.6z"/>
</svg>
